<svg width="107" height="24" viewBox="0 0 107 24" fill="none" xmlns="http://www.w3.org/2000/svg">
<path d="M8.64143 18.3925C7.34298 18.3925 6.16452 18.1431 5.10785 17.6425C4.05117 17.1418 3.14315 16.4618 2.38557 15.604C1.62799 14.7445 1.04055 13.7773 0.625048 12.7007C0.209543 11.6241 0 10.5205 0 9.38467C0 8.24882 0.220289 7.06991 0.660868 5.99327C1.10145 4.91664 1.71038 3.95843 2.48407 3.11507C3.25777 2.2735 4.17296 1.60598 5.23142 1.11252C6.28809 0.62086 7.45043 0.375028 8.71486 0.375028C9.97928 0.375028 11.1667 0.63342 12.2234 1.15021C13.28 1.66699 14.1845 2.35963 14.9331 3.22632C15.6817 4.0948 16.2656 5.06198 16.6811 6.12964C17.0966 7.19731 17.3061 8.29906 17.3061 9.43312C17.3061 10.5672 17.0894 11.7228 16.656 12.7994C16.2226 13.876 15.619 14.8342 14.8453 15.6776C14.0716 16.5192 13.1547 17.1831 12.098 17.6676C11.0413 18.1521 9.88794 18.3925 8.63964 18.3925H8.64143ZM3.49597 9.38467C3.49597 10.1527 3.61239 10.8938 3.84521 11.6115C4.07804 12.3293 4.41474 12.9663 4.85711 13.5261C5.29769 14.086 5.83856 14.5274 6.47973 14.8522C7.12089 15.177 7.84982 15.3403 8.66471 15.3403C9.4796 15.3403 10.239 15.1698 10.8873 14.8271C11.5374 14.4861 12.0783 14.0268 12.5099 13.4508C12.9433 12.8748 13.2711 12.2324 13.4967 11.5236C13.7206 10.8148 13.8334 10.1024 13.8334 9.38467C13.8334 8.61667 13.7117 7.87918 13.4717 7.17039C13.2299 6.46161 12.8896 5.82819 12.4472 5.26834C12.0067 4.71028 11.464 4.26707 10.8246 3.94228C10.1835 3.6175 9.46348 3.45421 8.66471 3.45421C7.81579 3.45421 7.07075 3.62467 6.42958 3.9674C5.78841 4.31013 5.25112 4.76411 4.81771 5.33114C4.38429 5.89817 4.05655 6.53159 3.83088 7.2332C3.60701 7.93301 3.49418 8.65077 3.49418 9.38467H3.49597Z" fill="white"/>
<path d="M23.9524 0V14.1075C23.9524 14.7104 24.0527 15.116 24.2515 15.3259C24.4521 15.5359 24.7261 15.6399 25.0754 15.6399C25.3422 15.6399 25.6162 15.6058 25.8992 15.5394C26.1822 15.473 26.4311 15.3887 26.6478 15.29L27.0974 17.8416C26.6478 18.0588 26.1231 18.2256 25.5231 18.3423C24.9231 18.4589 24.3823 18.5181 23.9005 18.5181C22.851 18.5181 22.0397 18.2382 21.4648 17.6784C20.8899 17.1185 20.6033 16.32 20.6033 15.2828V0H23.9524Z" fill="white"/>
<path d="M29.1713 20.8203C29.4704 20.8867 29.7498 20.9459 30.0077 20.9962C30.2656 21.0464 30.4859 21.0716 30.6704 21.0716C30.9856 21.0716 31.2488 20.9926 31.4566 20.8347C31.6643 20.6768 31.8685 20.3969 32.0691 19.9949C32.2697 19.5912 32.4774 19.0295 32.6941 18.3046L27.5236 5.2809H30.9945L34.5156 14.9006L37.6121 5.2809H40.809L35.3143 20.8903C35.1137 21.4699 34.8111 21.9957 34.4027 22.4694C33.9944 22.9413 33.4875 23.3145 32.8786 23.5891C32.2697 23.8636 31.5927 24 30.8423 24C30.5754 24 30.3086 23.9785 30.0435 23.9372C29.7767 23.8959 29.4847 23.8242 29.1695 23.7237V20.8203H29.1713Z" fill="white"/>
<path d="M63.9627 18.2669H60.6154V11.0158C60.6154 9.99656 60.4363 9.24471 60.0781 8.76022C59.7199 8.27574 59.2238 8.0317 58.5916 8.0317C57.9594 8.0317 57.3218 8.28292 56.7308 8.78355C56.1397 9.28598 55.7189 9.93914 55.4699 10.7448V18.2669H52.1226V11.0158C52.1226 9.98041 51.9435 9.22318 51.5853 8.74766C51.2271 8.27036 50.731 8.0317 50.0988 8.0317C49.4666 8.0317 48.829 8.27574 48.238 8.76561C47.647 9.25368 47.2261 9.89787 46.9771 10.6964V18.2669H43.6298V5.2791H46.6512V7.70153C47.1509 6.85996 47.8171 6.21219 48.6499 5.76C49.4827 5.30602 50.4391 5.07993 51.5226 5.07993C52.6061 5.07993 53.4497 5.3437 54.0568 5.87125C54.664 6.3988 55.0508 7.05017 55.2174 7.82535C55.7493 6.93533 56.4281 6.25346 57.2537 5.78512C58.0776 5.31499 59.0053 5.07993 60.0387 5.07993C60.8536 5.07993 61.5162 5.22527 62.0249 5.51237C62.5317 5.80127 62.9275 6.18886 63.2105 6.67514C63.4935 7.16142 63.6887 7.7105 63.7979 8.3206C63.9054 8.93069 63.9609 9.54976 63.9609 10.176V18.2669H63.9627Z" fill="white"/>
<path d="M75.7258 18.5181C74.7103 18.5181 73.8148 18.2902 73.0411 17.8381C72.2674 17.3841 71.6639 16.7704 71.2304 15.9934V23.5981H67.8831V5.2791H70.806V7.52927C71.3057 6.77024 71.9379 6.17271 72.7044 5.73488C73.4692 5.29705 74.3449 5.07813 75.3264 5.07813C76.2093 5.07813 77.0206 5.25219 77.7621 5.5985C78.5036 5.94482 79.1483 6.42751 79.6981 7.04658C80.248 7.66564 80.676 8.37443 80.9841 9.17473C81.2921 9.97503 81.4461 10.8363 81.4461 11.7604C81.4461 13.0147 81.2008 14.1524 80.71 15.1752C80.2193 16.198 79.5441 17.0108 78.6862 17.612C77.8284 18.2131 76.8415 18.5145 75.7276 18.5145L75.7258 18.5181ZM74.601 15.665C75.1168 15.665 75.5825 15.5592 75.9998 15.3456C76.4153 15.1321 76.7771 14.8432 77.0869 14.4736C77.395 14.1057 77.6278 13.6876 77.7872 13.2211C77.9448 12.7545 78.0236 12.2683 78.0236 11.7604C78.0236 11.2203 77.9358 10.7215 77.7621 10.2621C77.5866 9.80456 77.3323 9.39903 77.0009 9.04733C76.6678 8.69563 76.281 8.42108 75.8404 8.2255C75.3998 8.02991 74.9198 7.93121 74.404 7.93121C74.087 7.93121 73.7665 7.98505 73.4423 8.09092C73.1181 8.19678 72.8047 8.34751 72.5056 8.54131C72.2065 8.7369 71.9432 8.96479 71.7194 9.22318C71.4955 9.48337 71.3325 9.76867 71.2322 10.0773V13.1206C71.4328 13.5925 71.7033 14.025 72.0435 14.4161C72.3838 14.8073 72.7796 15.1124 73.2292 15.3331C73.6787 15.5538 74.1372 15.6633 74.6028 15.6633L74.601 15.665Z" fill="white"/>
<path d="M84.7164 3.3286V0H88.0638V3.3286H84.7164ZM84.7164 18.2669V5.15529H88.0638V18.2669H84.7164Z" fill="white"/>
<path d="M105.914 3.9997C105.133 3.21735 103.867 3.21735 103.085 3.9997L100.212 6.87791C99.431 7.66026 99.431 8.9289 100.212 9.71305C100.993 10.4954 102.259 10.4954 103.042 9.71305L105.914 6.83484C106.695 6.05249 106.695 4.78385 105.914 3.9997Z" fill="#5B53FF"/>
<path d="M97.9929 11.9363C97.212 11.1539 95.9458 11.1539 95.1632 11.9363L92.2905 14.8145C91.5096 15.5969 91.5096 16.8655 92.2905 17.6496C93.0713 18.432 94.3375 18.432 95.1202 17.6496L97.9929 14.7714C98.7738 13.9891 98.7738 12.7204 97.9929 11.9363Z" fill="#5B53FF"/>
<path d="M92.2905 3.9997C91.5096 4.78206 91.5096 6.05069 92.2905 6.83484L95.1632 9.71305C95.944 10.4954 97.2103 10.4954 97.9929 9.71305C98.7738 8.93069 98.7738 7.66206 97.9929 6.87791L95.1202 3.9997C94.3393 3.21735 93.0731 3.21735 92.2905 3.9997Z" fill="#5B53FF"/>
<path d="M100.212 11.9363C99.431 12.7187 99.431 13.9873 100.212 14.7714L103.085 17.6496C103.865 18.432 105.132 18.432 105.914 17.6496C106.695 16.8673 106.695 15.5987 105.914 14.8145L103.042 11.9363C102.261 11.1539 100.995 11.1539 100.212 11.9363Z" fill="#5B53FF"/>
</svg>
